<svg width="1025" height="1024" viewBox="0 0 1025 1024" fill="none" xmlns="http://www.w3.org/2000/svg">
<g clip-path="url(#clip0_4576_8025)">
<rect width="1024" height="1024" transform="translate(0.147949)" fill="#1F1F24"/>
<path d="M278.219 212.056H220.91C216.071 212.056 212.148 216.002 212.148 220.87V278.526C212.148 283.394 216.071 287.341 220.91 287.341H278.219C283.058 287.341 286.981 283.394 286.981 278.526V220.87C286.981 216.002 283.058 212.056 278.219 212.056Z" fill="#E2FF6F"/>
<path d="M381.659 287.337H325.895C321.051 287.337 317.134 283.396 317.134 278.523V220.814C317.134 215.941 321.051 212 325.895 212H381.659C387.328 212 391.966 216.666 391.966 222.37V276.915C391.966 282.619 387.328 287.285 381.659 287.285V287.337Z" fill="#E2FF6F"/>
<path d="M488.13 212.053H430.82C425.981 212.053 422.059 215.999 422.059 220.867V278.523C422.059 283.391 425.981 287.338 430.82 287.338H488.13C492.969 287.338 496.891 283.391 496.891 278.523V220.867C496.891 215.999 492.969 212.053 488.13 212.053Z" fill="#E2FF6F"/>
<path d="M593.168 212.053H535.858C531.02 212.053 527.097 215.999 527.097 220.867V278.523C527.097 283.391 531.02 287.338 535.858 287.338H593.168C598.007 287.338 601.929 283.391 601.929 278.523V220.867C601.929 215.999 598.007 212.053 593.168 212.053Z" fill="#E2FF6F"/>
<path d="M698.407 316.994H641.097C636.258 316.994 632.336 320.941 632.336 325.809V383.465C632.336 388.333 636.258 392.279 641.097 392.279H698.407C703.246 392.279 707.168 388.333 707.168 383.465V325.809C707.168 320.941 703.246 316.994 698.407 316.994Z" fill="#E2FF6F"/>
<path d="M593.168 316.994H535.858C531.02 316.994 527.097 320.941 527.097 325.809V383.465C527.097 388.333 531.02 392.279 535.858 392.279H593.168C598.007 392.279 601.929 388.333 601.929 383.465V325.809C601.929 320.941 598.007 316.994 593.168 316.994Z" fill="#E2FF6F"/>
<path d="M488.13 316.994H430.82C425.981 316.994 422.059 320.941 422.059 325.809V383.465C422.059 388.333 425.981 392.279 430.82 392.279H488.13C492.969 392.279 496.891 388.333 496.891 383.465V325.809C496.891 320.941 492.969 316.994 488.13 316.994Z" fill="#E2FF6F"/>
<path d="M327.441 316.994H383.205C388.049 316.994 391.966 320.935 391.966 325.809V383.517C391.966 388.391 388.049 392.331 383.205 392.331H327.441C321.772 392.331 317.134 387.665 317.134 381.962V327.416C317.134 321.713 321.772 317.046 327.441 317.046V316.994Z" fill="#E2FF6F"/>
<path d="M278.219 316.994H220.91C216.071 316.994 212.148 320.941 212.148 325.809V383.465C212.148 388.333 216.071 392.279 220.91 392.279H278.219C283.058 392.279 286.981 388.333 286.981 383.465V325.809C286.981 320.941 283.058 316.994 278.219 316.994Z" fill="#E2FF6F"/>
<path d="M276.673 421.885H222.456C216.763 421.885 212.148 426.528 212.148 432.255V486.8C212.148 492.528 216.763 497.17 222.456 497.17H276.673C282.366 497.17 286.981 492.528 286.981 486.8V432.255C286.981 426.528 282.366 421.885 276.673 421.885Z" fill="#E2FF6F"/>
<path d="M383.252 497.17H327.488C321.819 497.17 317.18 492.504 317.18 486.8V432.255C317.18 426.552 321.819 421.885 327.488 421.885H383.252C388.096 421.885 392.013 425.826 392.013 430.7V488.408C392.013 493.282 388.096 497.222 383.252 497.222V497.17Z" fill="#E2FF6F"/>
<path d="M488.13 421.885H430.82C425.981 421.885 422.059 425.832 422.059 430.7V488.356C422.059 493.224 425.981 497.17 430.82 497.17H488.13C492.969 497.17 496.891 493.224 496.891 488.356V430.7C496.891 425.832 492.969 421.885 488.13 421.885Z" fill="#E2FF6F"/>
<path d="M593.168 421.885H535.858C531.02 421.885 527.097 425.832 527.097 430.7V488.356C527.097 493.224 531.02 497.17 535.858 497.17H593.168C598.007 497.17 601.929 493.224 601.929 488.356V430.7C601.929 425.832 598.007 421.885 593.168 421.885Z" fill="#E2FF6F"/>
<path d="M698.407 421.885H641.097C636.258 421.885 632.336 425.832 632.336 430.7V488.356C632.336 493.224 636.258 497.17 641.097 497.17H698.407C703.246 497.17 707.168 493.224 707.168 488.356V430.7C707.168 425.832 703.246 421.885 698.407 421.885Z" fill="#E2FF6F"/>
<path d="M803.386 421.885H746.077C741.238 421.885 737.315 425.832 737.315 430.7V488.356C737.315 493.224 741.238 497.17 746.077 497.17H803.386C808.225 497.17 812.148 493.224 812.148 488.356V430.7C812.148 425.832 808.225 421.885 803.386 421.885Z" fill="#E2FF6F"/>
<path d="M803.386 526.829H746.077C741.238 526.829 737.315 530.775 737.315 535.643V593.299C737.315 598.167 741.238 602.114 746.077 602.114H803.386C808.225 602.114 812.148 598.167 812.148 593.299V535.643C812.148 530.775 808.225 526.829 803.386 526.829Z" fill="#E2FF6F"/>
<path d="M698.407 526.829H641.097C636.258 526.829 632.336 530.775 632.336 535.643V593.299C632.336 598.167 636.258 602.114 641.097 602.114H698.407C703.246 602.114 707.168 598.167 707.168 593.299V535.643C707.168 530.775 703.246 526.829 698.407 526.829Z" fill="#E2FF6F"/>
<path d="M593.168 526.829H535.858C531.02 526.829 527.097 530.775 527.097 535.643V593.299C527.097 598.167 531.02 602.114 535.858 602.114H593.168C598.007 602.114 601.929 598.167 601.929 593.299V535.643C601.929 530.775 598.007 526.829 593.168 526.829Z" fill="#E2FF6F"/>
<path d="M488.13 526.829H430.82C425.981 526.829 422.059 530.775 422.059 535.643V593.299C422.059 598.167 425.981 602.114 430.82 602.114H488.13C492.969 602.114 496.891 598.167 496.891 593.299V535.643C496.891 530.775 492.969 526.829 488.13 526.829Z" fill="#E2FF6F"/>
<path d="M327.441 526.829H383.205C388.049 526.829 391.966 530.769 391.966 535.643V593.351C391.966 598.225 388.049 602.166 383.205 602.166H327.441C321.772 602.166 317.134 597.499 317.134 591.796V537.25C317.134 531.547 321.772 526.88 327.441 526.88V526.829Z" fill="#E2FF6F"/>
<path d="M278.219 526.829H220.91C216.071 526.829 212.148 530.775 212.148 535.643V593.299C212.148 598.167 216.071 602.114 220.91 602.114H278.219C283.058 602.114 286.981 598.167 286.981 593.299V535.643C286.981 530.775 283.058 526.829 278.219 526.829Z" fill="#E2FF6F"/>
<path d="M278.219 631.72H220.91C216.071 631.72 212.148 635.666 212.148 640.534V698.19C212.148 703.058 216.071 707.005 220.91 707.005H278.219C283.058 707.005 286.981 703.058 286.981 698.19V640.534C286.981 635.666 283.058 631.72 278.219 631.72Z" fill="#E2FF6F"/>
<path d="M383.252 707.005H327.488C321.819 707.005 317.18 702.338 317.18 696.635V642.089C317.18 636.386 321.819 631.72 327.488 631.72H383.252C388.096 631.72 392.013 635.66 392.013 640.534V698.242C392.013 703.116 388.096 707.057 383.252 707.057V707.005Z" fill="#E2FF6F"/>
<path d="M488.13 631.72H430.82C425.981 631.72 422.059 635.666 422.059 640.534V698.19C422.059 703.058 425.981 707.005 430.82 707.005H488.13C492.969 707.005 496.891 703.058 496.891 698.19V640.534C496.891 635.666 492.969 631.72 488.13 631.72Z" fill="#E2FF6F"/>
<path d="M593.168 631.72H535.858C531.02 631.72 527.097 635.666 527.097 640.534V698.19C527.097 703.058 531.02 707.005 535.858 707.005H593.168C598.007 707.005 601.929 703.058 601.929 698.19V640.534C601.929 635.666 598.007 631.72 593.168 631.72Z" fill="#E2FF6F"/>
<path d="M698.407 631.72H641.097C636.258 631.72 632.336 635.666 632.336 640.534V698.19C632.336 703.058 636.258 707.005 641.097 707.005H698.407C703.246 707.005 707.168 703.058 707.168 698.19V640.534C707.168 635.666 703.246 631.72 698.407 631.72Z" fill="#E2FF6F"/>
<path d="M593.168 736.663H535.858C531.02 736.663 527.097 740.609 527.097 745.477V803.134C527.097 808.002 531.02 811.948 535.858 811.948H593.168C598.007 811.948 601.929 808.002 601.929 803.134V745.477C601.929 740.609 598.007 736.663 593.168 736.663Z" fill="#E2FF6F"/>
<path d="M488.13 736.663H430.82C425.981 736.663 422.059 740.609 422.059 745.477V803.134C422.059 808.002 425.981 811.948 430.82 811.948H488.13C492.969 811.948 496.891 808.002 496.891 803.134V745.477C496.891 740.609 492.969 736.663 488.13 736.663Z" fill="#E2FF6F"/>
<path d="M327.441 736.663H383.205C388.049 736.663 391.966 740.604 391.966 745.477V803.186C391.966 808.059 388.049 812 383.205 812H327.441C321.772 812 317.134 807.334 317.134 801.63V747.085C317.134 741.381 321.772 736.715 327.441 736.715V736.663Z" fill="#E2FF6F"/>
<path d="M278.219 736.663H220.91C216.071 736.663 212.148 740.609 212.148 745.477V803.134C212.148 808.002 216.071 811.948 220.91 811.948H278.219C283.058 811.948 286.981 808.002 286.981 803.134V745.477C286.981 740.609 283.058 736.663 278.219 736.663Z" fill="#E2FF6F"/>
</g>
<defs>
<clipPath id="clip0_4576_8025">
<rect width="1024" height="1024" fill="white" transform="translate(0.147949)"/>
</clipPath>
</defs>
</svg>
